<svg width="48" height="48" viewBox="0 0 48 48" fill="none" xmlns="http://www.w3.org/2000/svg">
<g clip-path="url(#clip0_100_2)">
<rect width="48" height="48" rx="16" fill="#3BCCAF"/>
<path d="M36.339 29.2885H34.3559V18.8741C34.3557 18.6602 34.3112 18.4487 34.2253 18.2529C34.1394 18.057 34.014 17.8811 33.8569 17.7362L25.0433 9.41237L25.0334 9.40355C24.7502 9.14398 24.3801 9 23.9961 9C23.6121 9 23.2421 9.14398 22.9589 9.40355L22.949 9.41237L14.1354 17.7373C13.9795 17.8825 13.8554 18.0585 13.7708 18.2542C13.6863 18.4498 13.6431 18.6609 13.6441 18.8741V29.2885H11.661C11.4857 29.2885 11.3176 29.3582 11.1936 29.4822C11.0696 29.6063 11 29.7746 11 29.95C11 30.1255 11.0696 30.2938 11.1936 30.4179C11.3176 30.5419 11.4857 30.6116 11.661 30.6116H36.339C36.5143 30.6116 36.6824 30.5419 36.8064 30.4179C36.9304 30.2938 37 30.1255 37 29.95C37 29.7746 36.9304 29.6063 36.8064 29.4822C36.6824 29.3582 36.5143 29.2885 36.339 29.2885ZM14.9661 18.8741C14.966 18.8434 14.9724 18.813 14.9847 18.7849C14.997 18.7568 15.0151 18.7316 15.0377 18.7109L15.0476 18.7021L23.8546 10.3794C23.8947 10.3443 23.9462 10.325 23.9994 10.325C24.0527 10.325 24.1042 10.3443 24.1443 10.3794L32.9524 18.7032L32.9612 18.712C32.984 18.7326 33.0023 18.7578 33.0148 18.7859C33.0273 18.814 33.0338 18.8444 33.0339 18.8752V29.2885H27.3051V23.7753C27.3051 23.3659 27.1426 22.9732 26.8533 22.6837C26.5641 22.3942 26.1718 22.2316 25.7627 22.2316H22.2373C21.8282 22.2316 21.4359 22.3942 21.1467 22.6837C20.8574 22.9732 20.6949 23.3659 20.6949 23.7753V29.2885H14.9661V18.8741ZM25.9831 29.2885H22.0169V23.7753C22.0169 23.7168 22.0402 23.6607 22.0815 23.6194C22.1228 23.578 22.1789 23.5548 22.2373 23.5548H25.7627C25.8211 23.5548 25.8772 23.578 25.9185 23.6194C25.9598 23.6607 25.9831 23.7168 25.9831 23.7753V29.2885Z" fill="#131515"/>
<path d="M13.1777 33.0654H14.0776V37.0025H13.3296L11.3667 34.6121V37.0025H10.4668V33.0654H11.2205L13.1777 35.4558V33.0654ZM17.6694 36.1251V34.9721H18.5018V36.5694C18.0688 36.8956 17.4726 37.07 16.9102 37.07C15.6728 37.07 14.7617 36.2207 14.7617 35.034C14.7617 33.8472 15.6728 32.9979 16.927 32.9979C17.6188 32.9979 18.1925 33.2342 18.575 33.6785L17.99 34.2184C17.7032 33.9147 17.3713 33.7741 16.972 33.7741C16.2071 33.7741 15.684 34.2859 15.684 35.034C15.684 35.7707 16.2071 36.2938 16.9608 36.2938C17.2082 36.2938 17.4388 36.2488 17.6694 36.1251ZM21.2549 37.07C20.0119 37.07 19.1007 36.2038 19.1007 35.034C19.1007 33.8641 20.0119 32.9979 21.2549 32.9979C22.4922 32.9979 23.409 33.8585 23.409 35.034C23.409 36.2094 22.4922 37.07 21.2549 37.07ZM21.2549 36.2938C21.9579 36.2938 22.4866 35.782 22.4866 35.034C22.4866 34.2859 21.9579 33.7741 21.2549 33.7741C20.5518 33.7741 20.0231 34.2859 20.0231 35.034C20.0231 35.782 20.5518 36.2938 21.2549 36.2938ZM28.5313 37.0025H27.6764L27.6708 34.6403L26.5122 36.5863H26.1016L24.9486 34.6909V37.0025H24.0937V33.0654H24.8474L26.321 35.512L27.7721 33.0654H28.5201L28.5313 37.0025ZM32.4069 37.0025L32.0582 36.1588H30.2303L29.8816 37.0025H28.948L30.7028 33.0654H31.6027L33.3631 37.0025H32.4069ZM30.5228 35.467H31.7714L31.1471 33.9597L30.5228 35.467ZM36.4712 33.0654H37.3824V37.0025H36.4712V35.3883H34.6827V37.0025H33.7716V33.0654H34.6827V34.6178H36.4712V33.0654Z" fill="#131515"/>
</g>
<defs>
<clipPath id="clip0_100_2">
<rect width="48" height="48" fill="white"/>
</clipPath>
</defs>
</svg>
