<svg width="18" height="20" viewBox="0 0 18 20" fill="none" xmlns="http://www.w3.org/2000/svg">
<path d="M14.3323 3.13333C13.5728 2.26625 13.1542 1.1527 13.1545 0H9.72118V13.7778C9.6947 14.5234 9.37993 15.2296 8.84314 15.7477C8.30636 16.2658 7.58946 16.5555 6.8434 16.5556C5.26563 16.5556 3.95452 15.2667 3.95452 13.6667C3.95452 11.7556 5.79896 10.3222 7.69896 10.9111V7.4C3.86563 6.88889 0.510071 9.86667 0.510071 13.6667C0.510071 17.3667 3.57674 20 6.83229 20C10.3212 20 13.1545 17.1667 13.1545 13.6667V6.67778C14.5467 7.67761 16.2183 8.21405 17.9323 8.21111V4.77778C17.9323 4.77778 15.8434 4.87778 14.3323 3.13333Z" fill="#131515"/>
</svg>
