<svg width="26" height="20" viewBox="0 0 26 20" fill="none" xmlns="http://www.w3.org/2000/svg">
<path d="M13.4323 0C14.5011 0 15.5973 0.0275001 16.6598 0.0725001L17.9148 0.1325L19.1161 0.20375L20.2411 0.28L21.2686 0.36C22.3836 0.445347 23.4329 0.921184 24.2317 1.7038C25.0306 2.48642 25.5278 3.52567 25.6361 4.63875L25.6861 5.17L25.7798 6.3075C25.8673 7.48625 25.9323 8.77125 25.9323 10C25.9323 11.2288 25.8673 12.5138 25.7798 13.6925L25.6861 14.83C25.6698 15.0125 25.6536 15.1887 25.6361 15.3612C25.5278 16.4745 25.0303 17.5139 24.2312 18.2966C23.4321 19.0792 22.3826 19.5549 21.2673 19.64L20.2423 19.7188L19.1173 19.7962L17.9148 19.8675L16.6598 19.9275C15.5846 19.9742 14.5085 19.9984 13.4323 20C12.3561 19.9984 11.28 19.9742 10.2048 19.9275L8.94981 19.8675L7.74856 19.7962L6.62356 19.7188L5.59606 19.64C4.481 19.5547 3.43175 19.0788 2.6329 18.2962C1.83405 17.5136 1.33678 16.4743 1.22856 15.3612L1.17856 14.83L1.08481 13.6925C0.989234 12.4639 0.938367 11.2323 0.932312 10C0.932312 8.77125 0.997312 7.48625 1.08481 6.3075L1.17856 5.17C1.19481 4.9875 1.21106 4.81125 1.22856 4.63875C1.33674 3.52587 1.83383 2.48677 2.63243 1.70418C3.43102 0.921589 4.47997 0.445628 5.59481 0.36L6.62106 0.28L7.74606 0.20375L8.94856 0.1325L10.2036 0.0725001C11.2792 0.0257912 12.3557 0.00161911 13.4323 0ZM13.4323 2.5C12.4011 2.5 11.3398 2.5275 10.3073 2.57L9.08481 2.62875L7.91106 2.6975L6.80856 2.7725L5.79856 2.85125C5.26773 2.88891 4.76737 3.11331 4.38618 3.48466C4.00499 3.85601 3.76759 4.35033 3.71606 4.88C3.56981 6.39125 3.43231 8.2725 3.43231 10C3.43231 11.7275 3.56981 13.6088 3.71606 15.12C3.82231 16.21 4.68731 17.0575 5.79856 17.1488L6.80856 17.2262L7.91106 17.3013L9.08481 17.3713L10.3073 17.43C11.3398 17.4725 12.4011 17.5 13.4323 17.5C14.4636 17.5 15.5248 17.4725 16.5573 17.43L17.7798 17.3713L18.9536 17.3025L20.0561 17.2275L21.0661 17.1488C21.5969 17.1111 22.0973 16.8867 22.4784 16.5153C22.8596 16.144 23.097 15.6497 23.1486 15.12C23.2948 13.6088 23.4323 11.7275 23.4323 10C23.4323 8.2725 23.2948 6.39125 23.1486 4.88C23.097 4.35033 22.8596 3.85601 22.4784 3.48466C22.0973 3.11331 21.5969 2.88891 21.0661 2.85125L20.0561 2.77375L18.9536 2.69875L17.7798 2.62875L16.5573 2.57C15.5162 2.52521 14.4743 2.50187 13.4323 2.5ZM10.9323 6.96875C10.9322 6.84658 10.962 6.72624 11.019 6.61819C11.076 6.51015 11.1586 6.41767 11.2595 6.34879C11.3604 6.27992 11.4766 6.23674 11.598 6.22301C11.7194 6.20928 11.8423 6.22541 11.9561 6.27L12.0573 6.32L17.3073 9.35C17.4119 9.41032 17.5003 9.49498 17.5651 9.5968C17.63 9.69861 17.6693 9.81456 17.6797 9.93481C17.6901 10.0551 17.6714 10.176 17.625 10.2875C17.5787 10.399 17.5062 10.4976 17.4136 10.575L17.3073 10.65L12.0573 13.6812C11.9515 13.7425 11.8323 13.777 11.7102 13.7817C11.588 13.7863 11.4666 13.7611 11.3564 13.7081C11.2462 13.6551 11.1507 13.576 11.0781 13.4776C11.0055 13.3793 10.958 13.2646 10.9398 13.1438L10.9323 13.0312V6.96875Z" fill="#131515"/>
</svg>
