<svg width="21" height="20" viewBox="0 0 21 20" fill="none" xmlns="http://www.w3.org/2000/svg">
<path d="M15.9323 11.13V14.827H13.7893V11.377C13.7893 10.511 13.4793 9.92 12.7033 9.92C12.1113 9.92 11.7583 10.318 11.6033 10.704C11.5473 10.842 11.5323 11.034 11.5323 11.226V14.827H9.38831C9.38831 14.827 9.41731 8.985 9.38831 8.38H11.5323V9.293L11.5183 9.314H11.5323V9.293C11.8173 8.853 12.3253 8.228 13.4643 8.228C14.8743 8.228 15.9323 9.15 15.9323 11.13ZM7.14531 5.271C6.41231 5.271 5.93231 5.753 5.93231 6.385C5.93231 7.005 6.39831 7.5 7.11731 7.5H7.13131C7.87931 7.5 8.34431 7.004 8.34431 6.385C8.33031 5.753 7.87931 5.271 7.14531 5.271ZM6.05931 14.827H8.20331V8.38H6.05931V14.827Z" fill="#131515"/>
<path d="M4.93231 2C4.40188 2 3.89317 2.21071 3.5181 2.58579C3.14303 2.96086 2.93231 3.46957 2.93231 4V16C2.93231 16.5304 3.14303 17.0391 3.5181 17.4142C3.89317 17.7893 4.40188 18 4.93231 18H16.9323C17.4627 18 17.9715 17.7893 18.3465 17.4142C18.7216 17.0391 18.9323 16.5304 18.9323 16V4C18.9323 3.46957 18.7216 2.96086 18.3465 2.58579C17.9715 2.21071 17.4627 2 16.9323 2H4.93231ZM4.93231 0H16.9323C17.9932 0 19.0106 0.421427 19.7607 1.17157C20.5109 1.92172 20.9323 2.93913 20.9323 4V16C20.9323 17.0609 20.5109 18.0783 19.7607 18.8284C19.0106 19.5786 17.9932 20 16.9323 20H4.93231C3.87145 20 2.85403 19.5786 2.10388 18.8284C1.35374 18.0783 0.932312 17.0609 0.932312 16V4C0.932312 2.93913 1.35374 1.92172 2.10388 1.17157C2.85403 0.421427 3.87145 0 4.93231 0Z" fill="#131515"/>
</svg>
