<svg width="169" height="40" viewBox="0 0 169 40" fill="none" xmlns="http://www.w3.org/2000/svg">
<path d="M47.8799 37.551H44.2095V18.2755C44.209 17.8797 44.1267 17.4882 43.9678 17.1257C43.8088 16.7633 43.5766 16.4377 43.2858 16.1694L26.9732 0.763236L26.9549 0.74691C26.4307 0.266481 25.7458 0 25.0351 0C24.3243 0 23.6394 0.266481 23.1153 0.74691L23.0969 0.763236L6.7843 16.1714C6.49577 16.4403 6.266 16.766 6.10948 17.1282C5.95296 17.4903 5.87308 17.8809 5.87487 18.2755V37.551H2.20453C1.88005 37.551 1.56886 37.68 1.33942 37.9097C1.10998 38.1393 0.981079 38.4507 0.981079 38.7755C0.981079 39.1003 1.10998 39.4117 1.33942 39.6413C1.56886 39.871 1.88005 40 2.20453 40H47.8799C48.2044 40 48.5155 39.871 48.745 39.6413C48.9744 39.4117 49.1033 39.1003 49.1033 38.7755C49.1033 38.4507 48.9744 38.1393 48.745 37.9097C48.5155 37.68 48.2044 37.551 47.8799 37.551ZM8.32176 18.2755C8.32164 18.2187 8.33336 18.1625 8.35618 18.1105C8.37901 18.0585 8.41243 18.0118 8.4543 17.9735L8.47265 17.9571L24.773 2.55303C24.8473 2.48815 24.9426 2.4524 25.0412 2.4524C25.1398 2.4524 25.235 2.48815 25.3093 2.55303L41.6118 17.9592L41.6281 17.9755C41.6703 18.0137 41.7041 18.0602 41.7273 18.1123C41.7505 18.1643 41.7625 18.2206 41.7626 18.2775V37.551H31.1594V27.3469C31.1594 26.5892 30.8587 25.8624 30.3233 25.3266C29.7879 24.7908 29.0618 24.4898 28.3047 24.4898H21.7797C21.0226 24.4898 20.2965 24.7908 19.7611 25.3266C19.2257 25.8624 18.925 26.5892 18.925 27.3469V37.551H8.32176V18.2755ZM28.7125 37.551H21.3719V27.3469C21.3719 27.2387 21.4148 27.1349 21.4913 27.0583C21.5678 26.9818 21.6715 26.9388 21.7797 26.9388H28.3047C28.4129 26.9388 28.5166 26.9818 28.5931 27.0583C28.6696 27.1349 28.7125 27.2387 28.7125 27.3469V37.551Z" fill="#131515"/>
<path d="M51.2392 34.51V17.6927H54.8377L62.9404 28.5616V17.6927H66.5633V34.51H62.9404L54.8377 23.6412V34.51H51.2392ZM77.7605 27.8761V25.061H85.2022V31.9887C83.5132 33.7512 80.9184 34.8038 78.397 34.8038C73.5256 34.8038 69.3886 30.8137 69.3886 26.0891C69.3886 21.3646 73.5256 17.399 78.397 17.399C80.9184 17.399 83.5132 18.4516 85.2022 20.2141L82.583 22.5641C81.5793 21.4136 79.9392 20.6792 78.397 20.6792C75.5329 20.6792 73.1094 23.1761 73.1094 26.0891C73.1094 29.0267 75.5329 31.5236 78.397 31.5236C79.5475 31.5236 80.7225 31.1319 81.6772 30.4465V27.8761H77.7605ZM96.5157 34.8038C91.6933 34.8038 87.5808 30.8137 87.5808 26.0891C87.5808 21.3646 91.6933 17.399 96.5157 17.399C101.387 17.399 105.451 21.3646 105.451 26.0891C105.451 30.8137 101.387 34.8038 96.5157 34.8038ZM96.5157 31.5236C99.3553 31.5236 101.754 29.0267 101.754 26.0891C101.754 23.1761 99.3553 20.6792 96.5157 20.6792C93.7006 20.6792 91.3016 23.1761 91.3016 26.0891C91.3016 29.0267 93.7006 31.5236 96.5157 31.5236ZM108.254 34.51V17.6927H111.853L117.067 27.1907L122.256 17.6927H125.879V34.51H122.256V24.0329L117.067 33.5309L111.853 24.0329V34.51H108.254ZM141.673 34.51L140.596 31.8663H133.105L132.028 34.51H127.989L134.843 17.6927H138.882L145.737 34.51H141.673ZM134.354 28.8063H139.348L136.851 22.662L134.354 28.8063ZM158.979 17.6927H162.578V34.51H158.979V27.5579H151.317V34.51H147.719V17.6927H151.317V24.3021H158.979V17.6927Z" fill="#131515"/>
<rect x="0.490051" y="37.551" width="168.02" height="2.44878" rx="1.22397" fill="#131515"/>
</svg>
