<svg width="21" height="20" viewBox="0 0 21 20" fill="none" xmlns="http://www.w3.org/2000/svg">
<path d="M6.73231 0H15.1323C18.3323 0 20.9323 2.6 20.9323 5.8V14.2C20.9323 15.7383 20.3212 17.2135 19.2335 18.3012C18.1458 19.3889 16.6706 20 15.1323 20H6.73231C3.53231 20 0.932312 17.4 0.932312 14.2V5.8C0.932312 4.26174 1.54338 2.78649 2.63109 1.69878C3.7188 0.61107 5.19406 0 6.73231 0ZM6.53231 2C5.57753 2 4.66186 2.37928 3.98673 3.05442C3.3116 3.72955 2.93231 4.64522 2.93231 5.6V14.4C2.93231 16.39 4.54231 18 6.53231 18H15.3323C16.2871 18 17.2028 17.6207 17.8779 16.9456C18.553 16.2705 18.9323 15.3548 18.9323 14.4V5.6C18.9323 3.61 17.3223 2 15.3323 2H6.53231ZM16.1823 3.5C16.5138 3.5 16.8318 3.6317 17.0662 3.86612C17.3006 4.10054 17.4323 4.41848 17.4323 4.75C17.4323 5.08152 17.3006 5.39946 17.0662 5.63388C16.8318 5.8683 16.5138 6 16.1823 6C15.8508 6 15.5328 5.8683 15.2984 5.63388C15.064 5.39946 14.9323 5.08152 14.9323 4.75C14.9323 4.41848 15.064 4.10054 15.2984 3.86612C15.5328 3.6317 15.8508 3.5 16.1823 3.5ZM10.9323 5C12.2584 5 13.5302 5.52678 14.4678 6.46447C15.4055 7.40215 15.9323 8.67392 15.9323 10C15.9323 11.3261 15.4055 12.5979 14.4678 13.5355C13.5302 14.4732 12.2584 15 10.9323 15C9.60623 15 8.33446 14.4732 7.39678 13.5355C6.4591 12.5979 5.93231 11.3261 5.93231 10C5.93231 8.67392 6.4591 7.40215 7.39678 6.46447C8.33446 5.52678 9.60623 5 10.9323 5ZM10.9323 7C10.1367 7 9.3736 7.31607 8.81099 7.87868C8.24838 8.44129 7.93231 9.20435 7.93231 10C7.93231 10.7956 8.24838 11.5587 8.81099 12.1213C9.3736 12.6839 10.1367 13 10.9323 13C11.728 13 12.491 12.6839 13.0536 12.1213C13.6162 11.5587 13.9323 10.7956 13.9323 10C13.9323 9.20435 13.6162 8.44129 13.0536 7.87868C12.491 7.31607 11.728 7 10.9323 7Z" fill="#131515"/>
</svg>
