<svg width="149" height="40" viewBox="0 0 149 40" fill="none" xmlns="http://www.w3.org/2000/svg">
<path d="M47.8988 37.551H44.2285V18.2755C44.228 17.8797 44.1457 17.4882 43.9867 17.1257C43.8277 16.7633 43.5955 16.4377 43.3048 16.1694L26.9921 0.763236L26.9738 0.74691C26.4497 0.266481 25.7647 0 25.054 0C24.3433 0 23.6583 0.266481 23.1342 0.74691L23.1158 0.763236L6.80322 16.1714C6.51469 16.4403 6.28492 16.766 6.1284 17.1282C5.97188 17.4903 5.892 17.8809 5.89379 18.2755V37.551H2.22345C1.89897 37.551 1.58778 37.68 1.35834 37.9097C1.1289 38.1393 1 38.4507 1 38.7755C1 39.1003 1.1289 39.4117 1.35834 39.6413C1.58778 39.871 1.89897 40 2.22345 40H47.8988C48.2233 40 48.5345 39.871 48.7639 39.6413C48.9934 39.4117 49.1222 39.1003 49.1222 38.7755C49.1222 38.4507 48.9934 38.1393 48.7639 37.9097C48.5345 37.68 48.2233 37.551 47.8988 37.551ZM8.34068 18.2755C8.34056 18.2187 8.35228 18.1625 8.3751 18.1105C8.39793 18.0585 8.43135 18.0118 8.47322 17.9735L8.49157 17.9571L24.792 2.55303C24.8663 2.48815 24.9615 2.4524 25.0601 2.4524C25.1587 2.4524 25.254 2.48815 25.3282 2.55303L41.6307 17.9592L41.647 17.9755C41.6892 18.0137 41.723 18.0602 41.7462 18.1123C41.7694 18.1643 41.7814 18.2206 41.7816 18.2775V37.551H31.1784V27.3469C31.1784 26.5892 30.8776 25.8624 30.3422 25.3266C29.8069 24.7908 29.0808 24.4898 28.3236 24.4898H21.7986C21.0415 24.4898 20.3154 24.7908 19.78 25.3266C19.2447 25.8624 18.9439 26.5892 18.9439 27.3469V37.551H8.34068V18.2755ZM28.7315 37.551H21.3908V27.3469C21.3908 27.2387 21.4337 27.1349 21.5102 27.0583C21.5867 26.9818 21.6904 26.9388 21.7986 26.9388H28.3236C28.4318 26.9388 28.5355 26.9818 28.612 27.0583C28.6885 27.1349 28.7315 27.2387 28.7315 27.3469V37.551Z" fill="#131515"/>
<path d="M57.7467 19.51H60.9467V33.51H58.2867L51.3067 25.01V33.51H48.1067V19.51H50.7867L57.7467 28.01V19.51ZM73.719 30.39V26.29H76.679V31.97C75.139 33.13 73.019 33.75 71.019 33.75C66.619 33.75 63.379 30.73 63.379 26.51C63.379 22.29 66.619 19.27 71.079 19.27C73.539 19.27 75.579 20.11 76.939 21.69L74.859 23.61C73.839 22.53 72.659 22.03 71.239 22.03C68.519 22.03 66.659 23.85 66.659 26.51C66.659 29.13 68.519 30.99 71.199 30.99C72.079 30.99 72.899 30.83 73.719 30.39ZM86.4687 33.75C82.0487 33.75 78.8087 30.67 78.8087 26.51C78.8087 22.35 82.0487 19.27 86.4687 19.27C90.8687 19.27 94.1287 22.33 94.1287 26.51C94.1287 30.69 90.8687 33.75 86.4687 33.75ZM86.4687 30.99C88.9687 30.99 90.8487 29.17 90.8487 26.51C90.8487 23.85 88.9687 22.03 86.4687 22.03C83.9687 22.03 82.0887 23.85 82.0887 26.51C82.0887 29.17 83.9687 30.99 86.4687 30.99ZM112.344 33.51H109.304L109.284 25.11L105.164 32.03H103.704L99.6037 25.29V33.51H96.5637V19.51H99.2437L104.484 28.21L109.644 19.51H112.304L112.344 33.51ZM126.125 33.51L124.885 30.51H118.385L117.145 33.51H113.825L120.065 19.51H123.265L129.525 33.51H126.125ZM119.425 28.05H123.865L121.645 22.69L119.425 28.05ZM140.578 19.51H143.818V33.51H140.578V27.77H134.218V33.51H130.978V19.51H134.218V25.03H140.578V19.51Z" fill="#131515"/>
<rect x="0.5" y="37" width="148" height="3" rx="1.5" fill="#131515"/>
</svg>
